# xmcd
#
# Track frame offsets: 
#        150
#        19231
#        39222
#        58802
#        75127
#        93231
#        105862
#        122247
#        135586
#        153915
#        171749
#        184437
#
# Disc length: 2751 seconds
#
# Revision: 0
# Processed by: cddbd v1.5.2PL0 Copyright (c) Steve Scherf et al.
# Submitted via: ExactAudioCopy v0.95b4
#
DISCID=920abd0c
DTITLE=Charlie Shafter Band - 17th and Chicago
DYEAR=2008
DGENRE=Americana
TTITLE0=Not My Girl
TTITLE1=Tall Tale
TTITLE2=Velcro Shoes
TTITLE3=17th and Chicago
TTITLE4=Lately (When You Still Believed in Unicorns)
TTITLE5=California
TTITLE6=Jesus and James Dean
TTITLE7=Big City Baby
TTITLE8=Black Sky
TTITLE9=Diamonds
TTITLE10=Blackbird
TTITLE11=Medicine Man
EXTD=
EXTT0=
EXTT1=
EXTT2=
EXTT3=
EXTT4=
EXTT5=
EXTT6=
EXTT7=
EXTT8=
EXTT9=
EXTT10=
EXTT11=
PLAYORDER=
